<svg aria-hidden="true" style="position: absolute; width: 0; height: 0; overflow: hidden;" version="1.1" xmlns="http://www.w3.org/2000/svg" xmlns:xlink="http://www.w3.org/1999/xlink">
<defs>
<symbol id="icon-logo" viewBox="0 0 97 32">
<path fill="#fff" style="fill: var(--color1, #fff)" d="M37.38 21.751l4.958-12.845h2.624l4.941 12.846h-2.406l-0.978-2.63h-5.791l-0.959 2.63h-2.389zM43.623 11.229l-2.208 6.005h4.416l-2.208-6.005zM59.673 16.98c0 3.138-1.701 4.935-4.073 4.935-0.923 0-1.683-0.273-2.425-0.725v3.428h-2.155v-12.356h1.648l0.343 0.89c0.688-0.563 1.557-1.053 2.787-1.053 2.208 0 3.872 1.778 3.872 4.881zM57.61 16.98c0-1.959-0.996-3.121-2.426-3.121-0.815 0-1.502 0.363-2.009 0.78v4.845c0.561 0.381 1.231 0.672 1.954 0.654 1.466 0 2.48-1.089 2.48-3.157zM69.677 16.98c0 3.138-1.701 4.935-4.073 4.935-0.923 0-1.682-0.273-2.425-0.725v3.428h-2.154v-12.356h1.647l0.343 0.89c0.688-0.563 1.557-1.053 2.787-1.053 2.208 0 3.872 1.778 3.872 4.881zM67.614 16.98c0-1.959-0.995-3.121-2.426-3.121-0.814 0-1.502 0.363-2.009 0.78v4.845c0.561 0.381 1.231 0.672 1.954 0.654 1.466 0 2.48-1.089 2.48-3.157zM79.138 17.706h-6.588c0.109 1.561 1.158 2.631 2.842 2.631 0.886 0 1.9-0.29 2.805-0.799l0.579 1.397c-1.021 0.609-2.25 0.972-3.564 0.98h-0.002c-2.769 0-4.669-1.707-4.669-4.864 0-3.011 1.845-4.989 4.343-4.989 2.624 0 4.253 2.050 4.253 5.081v0.562zM74.867 13.678c-1.303 0-2.19 1.106-2.317 2.703h4.597c-0.128-1.596-0.96-2.703-2.281-2.703zM82.537 21.753h-2.153v-13.174h2.155v13.173zM86.551 21.753h-2.155v-13.174h2.155v13.173zM96.881 16.998c0 3.011-1.936 4.954-4.487 4.954-2.588 0-4.489-1.923-4.489-4.935s1.937-4.954 4.507-4.954c2.551 0 4.469 1.923 4.469 4.935zM94.891 17.017c0-1.869-1.031-3.175-2.497-3.175-1.484 0-2.497 1.289-2.497 3.157s1.031 3.157 2.515 3.157c1.447 0 2.479-1.27 2.479-3.139zM15.893 0.442l10.957 6.343c0.991 0.582 1.646 1.642 1.646 2.856 0 0 0 0.001 0 0.001v-0 12.686c0 0 0 0.001 0 0.001 0 1.213-0.655 2.274-1.63 2.847l-0.015 0.008-10.957 6.343c-0.472 0.278-1.039 0.442-1.645 0.442s-1.174-0.164-1.661-0.45l0.015 0.008-10.958-6.343c-0.99-0.582-1.645-1.642-1.645-2.855 0-0.001 0-0.001 0-0.002v0-12.686c0-1.179 0.627-2.268 1.645-2.857l10.958-6.343c0.472-0.278 1.039-0.442 1.645-0.442s1.174 0.164 1.661 0.45l-0.015-0.008zM14.247 11.036l-4.274 2.475v4.949l4.274 2.474 4.275-2.475v-4.949l-4.275-2.474z"></path>
</symbol>
<symbol id="icon-eyetelligence" viewBox="0 0 165 32">
<path fill="#323232" style="fill: var(--color2, #323232)" d="M113.209 27.094c-1.595 0-3.168-0.473-4.266-1.543l0.923-1.17c1.049 0.871 2.171 1.22 3.318 1.22 1.822 0 3.418-1.046 3.418-3.088v-1.893c-0.624 1.146-1.92 1.968-3.492 1.968-2.794 0-4.766-2.117-4.766-5.378 0-2.939 1.895-5.529 4.815-5.529 2.818 0 3.542 1.867 3.542 1.867v-1.867c0.874 0 1.572 0.697 1.572 1.568v8.965c-0.025 3.362-2.295 4.881-5.065 4.881zM113.31 13.248c-2.121 0-3.294 1.868-3.294 3.886 0 2.29 1.198 3.959 3.343 3.959 1.97 0 3.318-1.893 3.318-3.91 0-2.117-1.372-3.935-3.367-3.935zM44.48 17.207c0.049 2.191 1.398 3.886 3.668 3.886 1.547 0 2.57-0.548 3.518-1.42l1.072 1.046c-0.948 0.997-2.42 1.893-4.615 1.893-3.292 0-5.287-2.39-5.287-5.578 0-2.815 1.969-5.329 5.163-5.329 2.695 0 4.316 1.793 4.815 4.133 0.15 0.722-0.423 1.37-1.147 1.37h-7.185zM47.898 13.199c-1.92 0-3.068 1.195-3.343 2.689h6.511c-0.249-1.37-1.322-2.689-3.168-2.689zM58.45 24.628c-0.474 1.296-1.273 2.342-2.868 2.342-0.625 0-1.099-0.074-1.598-0.274v-1.543c0.374 0.199 0.724 0.298 1.173 0.298 1.247 0 1.596-0.871 1.969-1.892l0.475-1.221-3.892-10.335h1.772l3.118 8.144 2.993-8.144h1.722l-4.866 12.626zM65.809 17.207c0.050 2.191 1.398 3.886 3.668 3.886 1.547 0 2.57-0.548 3.518-1.42l1.073 1.046c-0.972 0.997-2.42 1.893-4.615 1.893-3.294 0-5.289-2.39-5.289-5.578 0-2.815 1.97-5.329 5.164-5.329 2.694 0 4.315 1.793 4.814 4.133 0.15 0.722-0.423 1.37-1.147 1.37h-7.184zM69.228 13.199c-1.921 0-3.070 1.195-3.344 2.689h6.511c-0.224-1.37-1.322-2.689-3.167-2.689zM80.105 22.388c-1.846 0-3.019-0.722-3.019-2.764v-6.102h-1.521v-1.519h1.521v-4.806h1.647v4.806h1.946v1.519h-1.945v6.052c0 0.798 0.423 1.27 1.422 1.27h0.548v1.519s-0.548 0.025-0.598 0.025zM84.021 17.207c0.050 2.191 1.398 3.886 3.668 3.886 1.547 0 2.57-0.548 3.518-1.42l1.073 1.046c-0.948 0.997-2.421 1.893-4.615 1.893-3.294 0-5.29-2.39-5.29-5.578 0-2.815 1.972-5.329 5.164-5.329 2.695 0 4.316 1.793 4.815 4.133 0.15 0.722-0.423 1.37-1.147 1.37h-7.185zM87.439 13.199c-1.92 0-3.068 1.195-3.343 2.689h6.511c-0.249-1.37-1.322-2.689-3.168-2.689zM94.698 22.314v-15.093h1.647v15.090h-1.647zM99.538 22.314v-15.093h1.647v15.090h-1.647zM104.228 9.388v-2.415h0.474c0.001 0 0.002 0 0.004 0 0.646 0 1.169 0.523 1.169 1.169 0 0 0 0 0 0v0 1.246h-1.647zM104.228 22.313v-10.309h1.647v10.284h-1.647v0.025zM122.24 17.207c0.049 2.191 1.397 3.886 3.668 3.886 1.546 0 2.569-0.548 3.518-1.42l1.072 1.046c-0.972 0.997-2.42 1.893-4.614 1.893-3.295 0-5.29-2.39-5.29-5.578 0-2.815 1.97-5.329 5.164-5.329 2.694 0 4.316 1.793 4.815 4.133 0.15 0.722-0.423 1.37-1.147 1.37h-7.185zM125.658 13.199c-1.921 0-3.068 1.195-3.343 2.689h6.511c-0.25-1.37-1.322-2.689-3.168-2.689zM139.952 22.314v-6.575c0-1.47-0.823-2.516-2.42-2.516-1.921 0-2.969 1.694-2.969 3.138v5.951h-1.647v-9.14c0-0.646 0.524-1.169 1.173-1.169h0.474v1.494c0.624-1.12 1.846-1.793 3.218-1.793 2.32 0 3.817 1.494 3.817 3.76v6.848h-1.647zM148.958 22.612c-3.217 0-5.238-2.416-5.238-5.478 0-2.964 2.145-5.429 5.114-5.429 2.346 0 3.668 1.195 4.416 2.166l-1.248 0.972c-0.673-0.873-1.646-1.595-3.093-1.595-2.121 0-3.518 1.818-3.518 3.81 0 2.341 1.472 4.034 3.493 4.034 1.472 0 2.495-0.722 3.367-1.893l1.198 0.871c-0.948 1.394-2.545 2.54-4.491 2.54zM156.567 17.207c0.049 2.191 1.397 3.886 3.666 3.886 1.547 0 2.57-0.548 3.518-1.42l1.073 1.046c-0.949 0.997-2.42 1.893-4.615 1.893-3.292 0-5.289-2.39-5.289-5.578 0-2.815 1.97-5.329 5.164-5.329 2.694 0 4.315 1.793 4.814 4.133 0.15 0.722-0.423 1.37-1.147 1.37h-7.184zM159.985 13.199c-1.921 0-3.070 1.195-3.344 2.689h6.512c-0.25-1.37-1.322-2.689-3.168-2.689z"></path>
<path fill="#000" style="fill: var(--color3, #000)" d="M18.644 0c-10.804 0-18.644 5.728-18.644 16.062 0 9.489 8.91 15.938 18.4 15.938 9.979 0 18.523-6.575 18.523-16.187 0-10.209-8.788-15.813-18.279-15.813zM21.605 25.674c-5.729 0-11.070-3.062-11.070-7.594 0-4.932 4.71-7.646 11.216-7.646 5.728 0 11.020 2.665 11.020 7.545-0.025 4.558-5.17 7.696-11.167 7.696z"></path>
</symbol>
<symbol id="icon-fas" viewBox="0 0 65 32">
<path d="M64.889 0.347h-64.889v31.653h64.889v-31.653z"></path>
</symbol>
<symbol id="icon-foxo" viewBox="0 0 73 32">
<path fill="#888" style="fill: var(--color4, #888)" d="M53.608 10.232h-7.103l-3.644 5.701-3.704-5.701h-7.469l7.256 10.42-7.133 10.358h6.98c0.275-0.429 0.888-1.347 1.806-2.758s1.592-2.451 1.99-3.095l3.827 5.853h7.439c-0.307-0.459-2.786-3.983-7.439-10.603l7.194-10.175z"></path>
<path fill="#888" style="fill: var(--color4, #888)" d="M23.604 9.743c-5.908 0-10.684 4.781-10.684 10.695s4.776 10.696 10.685 10.696 10.685-4.781 10.685-10.695c0-5.915-4.776-10.696-10.685-10.696zM23.604 25.525c-0.003 0-0.006 0-0.009 0-2.801 0-5.072-2.271-5.072-5.072 0-0.005 0-0.010 0-0.015v0.001c-0-0.005-0-0.010-0-0.016 0-2.801 2.271-5.072 5.072-5.072 0.004 0 0.007 0 0.011 0h-0.001c0.003 0 0.007 0 0.010 0 2.801 0 5.072 2.271 5.072 5.072 0 0.005 0 0.011-0 0.016v-0.001c0 2.789-2.265 5.087-5.082 5.087z"></path>
<path fill="#888" style="fill: var(--color4, #888)" d="M14.206 10.202h-4.532v-1.594c0-1.042 0.276-1.777 0.827-2.175 0.509-0.402 1.159-0.644 1.867-0.644 0.011 0 0.022 0 0.033 0h-0.002c0.704 0 1.317 0.061 1.898 0.215v-5.21c-0.612-0.307-1.623-0.46-3.030-0.46-2.48 0-4.44 0.736-5.848 2.206-1.408 1.472-2.113 3.433-2.113 5.854v1.808h-3.307v5.363h3.306v15.507h6.369v-15.507h3c0.425-0.925 0.937-1.722 1.543-2.436l-0.012 0.015v-2.942zM68.396 19.949c1.622 0.613 3.673 0.184 4.775-0.981 0.154-0.184 0.093-0.459-0.091-0.552-1.041-0.52-1.745-1.41-2.327-2.421-0.093-0.184-0.215-0.337-0.307-0.52 0.051 0.002 0.111 0.003 0.171 0.003 0.44 0 0.866-0.057 1.273-0.164l-0.035 0.008c-0.276 0.061-0.674-0.061-1.133-0.307 0.337-0.061 0.582-0.153 0.582-0.153-0.337 0.122-1.102-0.337-1.837-0.95l-0.061-0.061c-1.837-1.716-4.684-3.524-8.48-3.524s-7.747 2.85-9.277 6.527c-0.429 0.766-1.133 1.839-1.868 1.839 0 0 0.857 0.093 1.316-0.153-0.184 0.828-0.581 2.819-0.551 3.218l1.316-2.39c-0.367 0.705-1.071 2.636-0.122 5.148 0.122-0.98 0.489-1.93 0.489-1.93-0.214 1.655-0.061 2.666 0.276 3.616 0.296 0.717 0.677 1.334 1.141 1.879l-0.008-0.010c2.082 2.237 5.112 3.586 8.419 3.371h0.030c5.174-0.337 9.399-4.505 9.827-9.653 0.031-0.46 0.061-1.043 0.031-1.471 0 0-1.194 0.643-2.664 0.49-1.286-0.153-2.725-1.196-3.032-1.471 0 0.031 0 0.061 0.031 0.061 0.030 0.061 0.030 0.123 0.061 0.184s0.030 0.153 0.061 0.215c0.031 0.093 0.031 0.153 0.061 0.245 0 0.061 0.030 0.123 0.030 0.184 0.031 0.244 0.061 0.49 0.061 0.735 0 2.819-2.296 5.118-5.112 5.118s-5.113-2.299-5.113-5.118v0.030c0-1.347 0.52-2.605 1.378-3.524l0.030-0.030c0.276-0.276 0.582-0.552 0.919-0.766l0.031-0.030s0.030 0 0.030-0.031c0.061-0.030 0.092-0.061 0.153-0.092s0.092-0.061 0.152-0.093h0.031l0.367-0.184c0.030 0 0.030-0.030 0.061-0.030 0.612-0.275 1.286-0.398 1.99-0.398 0.153 0 0.307 0 0.459 0.030 0.52 0.031 1.041 0.184 1.531 0.368 0.030 0 0.030 0 0.061 0.031 0.153 0.061 0.275 0.122 0.429 0.214 0 0 0.030 0 0.030 0.031 0.307 0.184 0.612 0.398 0.888 0.612 0.214 0.246 0.459 0.613 0.581 1.165 0.031-0.092 0.46-0.552-0.949-2.636-0.037-0.094-0.078-0.175-0.126-0.25l0.004 0.006c0.704 1.44 2.877 4.137 4.010 4.566zM68.916 18.416c-0.245-0.429-0.337-0.919-0.307-0.95 0.429 0.153 0.857 0.307 1.316 0.49 0.215 0.093 0.429-0.122 0.367-0.337-0.152-0.766-0.306-1.624-0.275-1.655 0.367 0.521 1.224 1.869 2.602 2.574 0.215 0.093 0.215 0.429 0 0.521-2.142 1.195-4.653 0.797-6.031-1.043 1.47 0.521 1.806 0.643 2.143 0.643 0.153 0.031 0.245-0.122 0.184-0.244zM69.681 12.349h0.337v-1.256h0.49v-0.337h-1.316v0.337h0.489v1.256zM71.059 11.307l0.429 1.042h0.275l0.429-1.042v1.042h0.337v-1.595h-0.49l-0.398 1.073-0.459-1.073h-0.46v1.594h0.337v-1.042z"></path>
</symbol>
<symbol id="icon-vidya" viewBox="0 0 80 32">
<path d="M0 0h80v32h-80v-32z"></path>
</symbol>
<symbol id="icon-oxy33" viewBox="0 0 235 32">
<path fill="#888" style="fill: var(--color4, #888)" d="M67.443 1.11h-14.842l12.592 15.227-21.587 15.661h14.392l12.592-9.57 8.096 9.57h14.842l-13.493-15.661 21.589-15.227h-14.842l-12.144 8.701-7.195-8.701z"></path>
<path fill="#888" style="fill: var(--color4, #888)" d="M115.568 21.994l-14.395-21.317 13.942 0.435 8.096 12.616 13.493-12.616h14.392l-24.736 20.882-2.699 10.006h-10.794l2.698-10.006zM158.742 0.677l-9.445 8.699h27.931c0.938 0.029 1.688 0.797 1.688 1.74s-0.75 1.711-1.685 1.74l-0.003 0h-15.787l-7.646 6.96h20.003c0.841 0 1.523 0.682 1.523 1.523s-0.682 1.523-1.523 1.523v0h-23.152l-9.445 9.138h32.814c0 0 0 0 0 0 5.54 0 10.27-3.47 12.135-8.356l0.030-0.089 1.122-3.003c0.125-0.325 0.198-0.7 0.198-1.093 0-1.724-1.398-3.122-3.122-3.122-0 0-0.001 0-0.001 0h0c0 0 0 0 0.001 0 2.153 0 3.964-1.464 4.491-3.451l0.007-0.032 1.59-6.152c0.097-0.362 0.153-0.777 0.153-1.205 0-2.662-2.158-4.82-4.82-4.821h-27.058zM201.918 0.677l-9.445 8.701h27.931c0.938 0.029 1.688 0.797 1.688 1.74s-0.75 1.711-1.685 1.74l-0.003 0h-15.787l-7.646 6.96h20.003c0.841 0 1.523 0.682 1.523 1.523s-0.682 1.523-1.523 1.523v0h-23.152l-9.445 9.136h32.814c0 0 0 0 0 0 5.54 0 10.27-3.47 12.135-8.356l0.030-0.089 1.122-3.003c0.125-0.325 0.198-0.7 0.198-1.093 0-1.724-1.398-3.122-3.122-3.122-0 0-0.001 0-0.001 0h0c0 0 0 0 0.001 0 2.153 0 3.964-1.464 4.491-3.451l0.007-0.032 1.59-6.152c0.097-0.362 0.153-0.778 0.153-1.206 0-2.662-2.158-4.819-4.819-4.819-0 0-0.001 0-0.002 0h-27.058z"></path>
<path fill="#888" style="fill: var(--color4, #888)" d="M2.73 27.547c-1.338-1.293-2.914-3.859-2.714-5.792 0.286-3.403 0.72-6.459 1.987-9.699 0.598-1.504 1.533-3.019 2.712-4.16 0.795-0.928 1.589-1.824 2.68-2.496 2.426-1.531 4.637-2.896 7.478-3.68 3.531-1.053 7.371-1.499 11.051-1.664 4.525-0.205 9.094 0.198 11.581 0.64l0.129 0.020c1.886 0.347 3.683 0.947 5.231 1.708 1.654 0.768 2.946 1.888 4.070 3.136 0.523 0.595 0.845 1.411 1.154 2.192l0.070 0.176c1.258 3.227-0.018 8.549-1.422 11.811-0.624 1.408-1.328 2.75-2.349 3.936-1.712 1.986-3.602 3.613-5.957 4.834-2.314 1.198-4.616 1.893-7.146 2.528-2.31 0.57-4.898 0.928-7.28 0.928l-0.206 0.002c-6.096 0.077-12.054 0.149-17.76-2.275-1.258-0.544-2.349-1.248-3.309-2.144zM19.374 9.208c-1.654 0.288-3.178 0.736-4.6 1.6-3.013 1.776-3.64 5.731-3.64 8.8 0 0.768 1.027 2.178 1.754 2.434 5.44 1.846 13.549 1.877 18.928 0.096 1.19-0.384 2.15-0.96 3.010-1.792 1.746-1.747 2.813-4.717 2.813-7.136 0-1.858-1.125-3.394-2.978-3.746-4.867-0.92-10.416-1.104-15.286-0.256z"></path>
</symbol>
<symbol id="icon-hst" viewBox="0 0 126 32">
<path fill="#888" style="fill: var(--color4, #888)" d="M82.052 11.124h-1.658v-2.853h-2.456v2.854h-1.668v-6.835h1.668v2.713h2.456v-2.713h1.658v6.834zM84.887 11.124h-1.662v-6.834h1.662v6.834zM91.709 10.279c-0.256 0.282-0.631 0.509-1.126 0.682-0.469 0.164-1.009 0.258-1.571 0.258-0.019 0-0.037-0-0.056-0l0.003 0c-0.906 0-1.629-0.273-2.172-0.821-0.541-0.548-0.831-1.309-0.869-2.287l-0.005-0.591c0-0.672 0.12-1.26 0.362-1.76 0.226-0.487 0.58-0.882 1.019-1.153l0.011-0.007c0.449-0.271 0.97-0.407 1.557-0.407 0.862 0 1.53 0.195 2.005 0.586 0.478 0.388 0.756 0.97 0.836 1.742h-1.606c-0.056-0.381-0.18-0.654-0.37-0.817s-0.459-0.244-0.808-0.244c-0.417 0-0.741 0.175-0.969 0.526s-0.343 0.851-0.347 1.503v0.413c0 0.682 0.117 1.195 0.352 1.539 0.238 0.341 0.61 0.512 1.116 0.512 0.434 0 0.756-0.095 0.97-0.286v-1.061h-1.16v-1.132h2.827v2.807zM98.46 11.124h-1.658v-2.853h-2.456v2.854h-1.668v-6.835h1.668v2.713h2.456v-2.713h1.658v6.834zM79.838 17.685c0-0.009 0.001-0.020 0.001-0.030 0-0.216-0.102-0.408-0.261-0.531l-0.002-0.001c-0.171-0.136-0.473-0.274-0.907-0.419-0.425-0.136-0.777-0.277-1.118-0.44l0.053 0.023c-0.896-0.436-1.344-1.034-1.344-1.794 0-0.378 0.111-0.712 0.333-0.999 0.225-0.292 0.541-0.517 0.95-0.677 0.392-0.155 0.847-0.245 1.322-0.245 0.019 0 0.038 0 0.057 0l-0.003-0c0.497 0 0.943 0.087 1.335 0.263 0.396 0.175 0.703 0.427 0.921 0.752 0.219 0.322 0.328 0.691 0.328 1.107h-1.662c0-0.278-0.087-0.495-0.262-0.648-0.171-0.153-0.403-0.23-0.698-0.23-0.298 0-0.533 0.066-0.708 0.197-0.156 0.108-0.256 0.286-0.256 0.487 0 0.002 0 0.005 0 0.007v-0c0 0.175 0.095 0.335 0.285 0.478 0.19 0.142 0.524 0.288 1.002 0.441 0.478 0.15 0.871 0.313 1.178 0.489 0.748 0.426 1.121 1.012 1.121 1.76 0 0.598-0.228 1.067-0.684 1.409-0.456 0.34-1.081 0.511-1.876 0.511-0.016 0-0.035 0-0.054 0-0.531 0-1.037-0.109-1.496-0.306l0.025 0.009c-0.453-0.2-0.795-0.472-1.026-0.817-0.215-0.327-0.343-0.729-0.343-1.16 0-0.013 0-0.027 0-0.040l-0 0.002h1.673c0 0.367 0.095 0.637 0.285 0.813 0.193 0.173 0.504 0.258 0.936 0.258 0.275 0 0.493-0.058 0.651-0.174 0.148-0.107 0.243-0.279 0.243-0.473 0-0.008-0-0.017-0.001-0.025l0 0.001zM84.712 16.958l-0.685 0.742v1.803h-1.667v-6.834h1.668v3.013l0.579-0.868 1.492-2.146h2.062l-2.337 3.024 2.337 3.811h-1.976l-1.473-2.543zM90.36 19.503h-1.663v-6.834h1.663v6.834zM93.187 18.235h2.902v1.267h-4.569v-6.834h1.668v5.566zM98.459 18.235h2.903v1.267h-4.57v-6.834h1.667v5.566zM81.7 22.318h-2.075v5.562h-1.668v-5.562h-2.039v-1.272h5.781v1.272zM84.977 25.467h-0.902v2.413h-1.668v-6.834h2.722c0.82 0 1.461 0.179 1.924 0.539s0.693 0.869 0.693 1.526c0 0.475-0.097 0.87-0.294 1.183-0.194 0.312-0.497 0.566-0.912 0.76l1.445 2.755v0.071h-1.787l-1.221-2.413zM84.076 24.195h1.054c0.317 0 0.555-0.081 0.713-0.244 0.161-0.165 0.242-0.396 0.242-0.689s-0.081-0.525-0.242-0.69c-0.162-0.169-0.4-0.253-0.713-0.253h-1.055v1.877zM92.684 26.603h-2.286l-0.4 1.277h-1.781l2.538-6.834h1.567l2.556 6.834h-1.791l-0.403-1.277zM90.798 25.33h1.487l-0.747-2.37-0.74 2.37zM97.163 27.88h-1.662v-6.834h1.662v6.834zM104.098 27.88h-1.657l-2.451-4.253v4.253h-1.668v-6.834h1.668l2.447 4.253v-4.253h1.662v6.834zM106.929 27.88h-1.662v-6.834h1.662v6.834zM113.866 27.88h-1.658l-2.451-4.253v4.253h-1.667v-6.834h1.667l2.447 4.253v-4.253h1.663v6.834zM120.583 27.035c-0.256 0.281-0.631 0.508-1.126 0.681-0.469 0.164-1.009 0.258-1.571 0.258-0.019 0-0.037-0-0.056-0l0.003 0c-0.906 0-1.63-0.273-2.171-0.821s-0.832-1.309-0.87-2.287l-0.005-0.591c0-0.673 0.121-1.26 0.362-1.76 0.24-0.504 0.584-0.89 1.031-1.16 0.45-0.271 0.969-0.407 1.558-0.407 0.861 0 1.529 0.194 2.004 0.586 0.478 0.388 0.757 0.969 0.836 1.742h-1.606c-0.056-0.382-0.18-0.654-0.37-0.817s-0.459-0.244-0.808-0.244c-0.418 0-0.741 0.175-0.969 0.526s-0.343 0.851-0.347 1.503v0.412c0 0.683 0.117 1.196 0.352 1.54 0.238 0.341 0.61 0.512 1.116 0.512 0.434 0 0.757-0.096 0.97-0.287v-1.060h-1.16v-1.132h2.827v2.807z"></path>
<path fill="#888" style="fill: var(--color4, #888)" d="M119.193 10.151c-0.050 0.049-0.081 0.118-0.081 0.194 0 0 0 0 0 0v0 7.784c-0.001 0.152-0.124 0.274-0.276 0.274-0.001 0-0.001 0-0.002 0h-12.369c-0.001 0-0.001 0-0.002 0-0.152 0-0.275-0.123-0.276-0.274v-12.223c0-0.152 0.124-0.275 0.278-0.275h12.394c0.074 0 0.144-0.029 0.196-0.080l0.557-0.549c0.050-0.050 0.081-0.119 0.081-0.195 0-0.152-0.123-0.274-0.274-0.274-0.001 0-0.003 0-0.004 0h-14.061c-0.001 0-0.001 0-0.002 0-0.152 0-0.276 0.123-0.276 0.275v14.419c0 0.152 0.125 0.275 0.278 0.275h14.594c0 0 0.001 0 0.001 0 0.152 0 0.275-0.123 0.276-0.274v-9.431c0-0.245-0.3-0.367-0.474-0.194l-0.556 0.549z"></path>
<path fill="#888" style="fill: var(--color4, #888)" d="M108.062 10.535l2.033-1.443c0.068-0.048 0.152-0.077 0.243-0.077 0.134 0 0.254 0.063 0.331 0.161l0.001 0.001 2.17 2.804c0.077 0.099 0.197 0.162 0.331 0.162 0.117 0 0.223-0.048 0.299-0.126l0-0 11.367-11.624c0.076-0.077 0.182-0.125 0.3-0.125 0.091 0 0.175 0.029 0.244 0.078l-0.001-0.001 0.322 0.227c0.195 0.138 0.233 0.407 0.083 0.593l-12.733 15.729c-0.078 0.094-0.194 0.154-0.325 0.154-0.135 0-0.255-0.064-0.332-0.163l-4.423-5.765c-0.053-0.068-0.085-0.155-0.085-0.249 0-0.138 0.068-0.26 0.173-0.334l0.001-0.001zM69.355 0h-66.575c-1.536 0-2.78 1.23-2.78 2.747v26.506c0 1.518 1.244 2.747 2.78 2.747h66.573c1.536 0 2.78-1.23 2.78-2.747v-26.506c0.001-1.518-1.243-2.747-2.779-2.747z"></path>
<path fill="#fff" style="fill: var(--color1, #fff)" d="M25.637 27.743h-5.756v-9.909h-8.526v9.907h-5.789v-23.725h5.789v9.419h8.526v-9.419h5.756v23.726zM41.023 21.436c0-0.837-0.303-1.488-0.907-1.956-0.593-0.467-1.644-0.95-3.15-1.451s-2.738-0.982-3.695-1.45c-3.111-1.51-4.667-3.585-4.667-6.225 0-1.314 0.385-2.471 1.154-3.471 0.782-1.009 1.881-1.792 3.299-2.346 1.418-0.565 3.012-0.848 4.783-0.848 1.726 0 3.271 0.304 4.634 0.912 1.374 0.609 2.441 1.478 3.199 2.607 0.758 1.119 1.137 2.401 1.137 3.846h-5.772c0-0.967-0.303-1.716-0.907-2.25-0.593-0.531-1.402-0.798-2.424-0.798-1.034 0-1.852 0.229-2.457 0.685-0.593 0.446-0.891 1.016-0.891 1.711 0 0.608 0.33 1.163 0.989 1.662 0.66 0.489 1.82 0.999 3.481 1.532 1.659 0.521 3.023 1.086 4.089 1.694 2.594 1.478 3.891 3.515 3.891 6.111 0 2.075-0.791 3.704-2.375 4.888s-3.754 1.776-6.513 1.776c-1.946 0-3.71-0.342-5.295-1.026-1.571-0.696-2.759-1.641-3.562-2.836-0.791-1.205-1.187-2.59-1.187-4.155h5.805c0 1.271 0.33 2.211 0.989 2.819 0.671 0.598 1.754 0.897 3.248 0.897 0.957 0 1.711-0.202 2.259-0.603 0.561-0.413 0.842-0.989 0.842-1.727zM67.953 8.432h-7.206v19.31h-5.789v-19.31h-7.075v-4.416h20.070v4.416z"></path>
</symbol>
<symbol id="icon-walker" viewBox="0 0 31 32">
<path fill="#888" style="fill: var(--color4, #888)" d="M26.349 5.964c-0.015 0-0.046-0.023-0.054-0.062-0.015-0.054 0.008-0.1 0.070-0.108 0.046-0.008 0.069 0.023 0.077 0.062 0.016 0.054 0 0.093-0.093 0.108zM22.669 15.206c-0.015-0.016-0.038-0.039-0.038-0.054 0.008-0.046 0.039-0.062 0.077-0.038 0.015 0.007 0.030 0.046 0.022 0.062s-0.038 0.022-0.062 0.031zM11.771 7.538c0.008-0.015 0.015-0.046 0.039-0.054 0.046-0.015 0.069 0.008 0.077 0.054 0 0.024-0.015 0.054-0.031 0.062-0.039 0-0.077-0.008-0.085-0.062zM4.559 8.079c-0.015 0.030-0.039 0.038-0.046 0.015-0.008-0.016-0.008-0.039-0.008-0.062 0-0.008 0.015-0.016 0.023-0.016 0.031 0.016 0.039 0.031 0.031 0.062zM31.371 14.048c-0.016 0.031-0.039 0.039-0.062 0.023-0.016-0.008-0.024-0.031-0.039-0.046 0.024-0.008 0.047-0.024 0.062-0.024s0.024 0.031 0.039 0.047zM19.106 6.828c-0.015-0.008-0.031-0.016-0.046-0.031 0.008-0.008 0.015-0.024 0.023-0.024l0.047 0.024c-0.009 0.009-0.017 0.019-0.023 0.030l-0 0.001z"></path>
<path fill="#888" style="fill: var(--color4, #888)" d="M10.699 7.669c0.016-0.285 0.154-0.501 0.286-0.717 0.771-1.242 1.543-2.491 2.314-3.733 0.609-0.988 1.226-1.967 1.836-2.954 0.208-0.332 0.486-0.34 0.71-0.008 0.741 1.134 1.481 2.268 2.214 3.394 0.957 1.465 1.921 2.939 2.877 4.405l2.684 4.119c0.671 1.033 1.35 2.059 2.021 3.085 0.231 0.355 0.239 0.733 0.023 1.095-1.103 1.844-2.221 3.687-3.332 5.531l-0.926 1.527c-0.193 0.317-0.463 0.332-0.664 0.024 0.688 1.164 0.098 0.267-0.489-0.633l-1.3-2.121-2.244-3.471c-0.694-1.072-1.389-2.152-2.091-3.225l-2.245-3.448c-0.158-0.204-0.665-0.976-1.164-1.753l-0.37-0.615c-0.070-0.139-0.085-0.332-0.139-0.501zM0.054 7.361c-0.093-0.362 0.147-0.617 0.309-0.879 1.196-1.936 2.407-3.872 3.61-5.816 0.108-0.17 0.2-0.339 0.316-0.501 0.162-0.216 0.409-0.216 0.563 0.008 0.401 0.602 0.794 1.211 1.196 1.821 0.694 1.064 1.396 2.136 2.090 3.201l1.921 2.962c0.733 1.134 1.473 2.26 2.214 3.394 0.501 0.771 1.003 1.543 1.505 2.322 0.316 0.486 0.64 0.972 0.956 1.465 0.208 0.324 0.223 0.687 0.031 1.003-1.288 2.222-1.918 3.251-2.555 4.276l0.65-1.122c-0.694 1.149-1.381 2.306-2.075 3.455-0.116 0.201-0.231 0.394-0.371 0.587-0.162 0.231-0.409 0.231-0.555-0.008-0.555-0.887-1.11-1.782-1.666-2.669-0.748-1.211-1.497-2.414-2.245-3.626l-2.406-3.888c-0.795-1.28-1.597-2.568-2.392-3.849-0.324-0.524-0.655-1.041-0.964-1.574-0.093-0.162-0.123-0.362-0.185-0.547 0.008-0.008 0.031-0.016 0.054-0.016zM31.055 6.991c0.023 0.324-0.093 0.586-0.254 0.848-0.98 1.605-1.944 3.224-2.916 4.837-0.386 0.64-0.779 1.28-1.172 1.921-0.208 0.34-0.463 0.34-0.679 0.008-1.057-1.612-2.121-3.224-3.178-4.836l-1.064-1.62c-0.231-0.363-0.231-0.733-0.016-1.088 1.095-1.789 2.198-3.563 3.302-5.353 0.278-0.455 0.556-0.91 0.833-1.357 0.031-0.047 0.062-0.101 0.093-0.147 0.193-0.27 0.455-0.27 0.64 0 0.316 0.447 0.618 0.894 0.934 1.342 0.856 1.242 1.712 2.476 2.568 3.718 0.269 0.393 0.556 0.763 0.802 1.172 0.085 0.154 0.070 0.371 0.108 0.556zM6.742 27.732c-0.101 0.424-0.185 0.803-0.278 1.181-0.154 0.687-0.309 1.373-0.47 2.059-0.1 0.424-0.401 0.656-0.833 0.648-0.223 0-0.455-0.007-0.663-0.069-0.123-0.039-0.27-0.177-0.309-0.301-0.097-0.313-0.201-0.733-0.286-1.161l-0.015-0.089c-0.154-0.741-0.293-1.481-0.44-2.221-0.070-0.355-0.147-0.717-0.208-1.072-0.031-0.193 0.046-0.269 0.239-0.277 0.254 0 0.516 0.007 0.771 0 0.154-0.008 0.223 0.077 0.239 0.216 0.108 0.733 0.208 1.458 0.316 2.191 0.085 0.563 0.177 1.126 0.309 1.697 0.046-0.177 0.093-0.363 0.131-0.54 0.216-0.98 0.424-1.967 0.64-2.946 0.070-0.309 0.193-0.409 0.502-0.409h0.748c0.231 0 0.362 0.093 0.416 0.317 0.116 0.486 0.216 0.972 0.324 1.458 0.154 0.702 0.316 1.411 0.517 2.121 0.031-0.177 0.062-0.355 0.085-0.532 0.101-0.664 0.2-1.334 0.293-1.998l0.185-1.273c0.031-0.247 0.093-0.3 0.347-0.3h0.671c0.208 0 0.293 0.108 0.254 0.3-0.177 0.88-0.347 1.759-0.524 2.639l-0.324 1.62c-0.093 0.47-0.309 0.64-0.787 0.64-0.185 0-0.378 0.008-0.555-0.039-0.432-0.116-0.54-0.486-0.625-0.863l-0.648-2.87c0.023-0.031 0.008-0.054-0.023-0.123zM17.864 29.468v1.751c0 0.331-0.046 0.386-0.371 0.386h-0.594c-0.17 0-0.254-0.070-0.254-0.255v-6.471c0-0.17 0.085-0.247 0.247-0.247h0.671c0.247 0 0.309 0.070 0.309 0.309v3.625c0.077-0.084 0.123-0.131 0.162-0.185 0.44-0.586 0.872-1.172 1.311-1.758 0.101-0.131 0.216-0.2 0.393-0.193 0.286 0.016 0.579 0 0.865 0.008 0.062 0 0.154 0.031 0.177 0.070 0.022 0.046-0.016 0.139-0.054 0.185-0.699 0.877-1.244 1.54-1.797 2.196l0.131-0.16c-0.101 0.123-0.101 0.2-0.008 0.331 0.571 0.764 1.134 1.535 1.697 2.307 0.092 0.123 0.046 0.231-0.101 0.239-0.371 0.008-0.748 0.015-1.118-0.008-0.093-0.008-0.193-0.101-0.255-0.185-0.409-0.571-0.802-1.157-1.203-1.735-0.047-0.070-0.101-0.139-0.154-0.216-0.023-0.008-0.039 0-0.054 0.008z"></path>
<path fill="#888" style="fill: var(--color4, #888)" d="M21.744 29.437c-0.093 0.594 0.301 1.126 0.864 1.134 0.586 0.007 1.165-0.031 1.751-0.054 0.269-0.015 0.309 0.008 0.309 0.27 0 0.162-0.008 0.324 0 0.478s-0.070 0.208-0.208 0.239c-0.748 0.177-1.512 0.147-2.26 0.085-0.687-0.054-1.219-0.463-1.497-1.118-0.11-0.261-0.182-0.563-0.2-0.88l-0-0.007c-0.023-0.517-0.023-1.041 0.046-1.551 0.123-0.941 0.865-1.589 1.821-1.658 0.54-0.039 1.064 0 1.535 0.301 0.54 0.347 0.818 0.856 0.911 1.465 0.046 0.332 0.038 0.679 0.046 1.018 0.008 0.216-0.054 0.278-0.269 0.278h-2.847zM23.611 28.55c0-0.424-0.1-0.794-0.478-1.003-0.309-0.17-0.648-0.17-0.949 0.015-0.362 0.216-0.478 0.571-0.455 0.995 0.632-0.007 1.25-0.007 1.882-0.007zM13.090 31.289c-0.109 0.049-0.197 0.096-0.283 0.146l0.013-0.007c-0.502 0.269-1.057 0.239-1.581 0.162-0.494-0.077-0.81-0.417-0.941-0.926-0.108-0.44-0.108-0.871 0.070-1.28 0.224-0.517 0.687-0.733 1.211-0.803 0.417-0.053 0.841-0.053 1.265-0.069 0.139 0 0.2-0.046 0.185-0.185-0.008-0.093 0-0.193 0-0.285-0.016-0.424-0.209-0.633-0.625-0.64-0.393-0.008-0.794 0.015-1.196 0.031-0.146 0.007-0.293 0.022-0.439 0.030-0.162 0.016-0.239-0.054-0.239-0.216v-0.478c0-0.139 0.054-0.224 0.185-0.247 0.262-0.046 0.532-0.108 0.794-0.116 0.493-0.008 0.995-0.039 1.473 0.039 0.81 0.131 1.273 0.748 1.28 1.62 0.008 1.080 0 2.16 0 3.232 0 0.231-0.069 0.301-0.3 0.301h-0.556c-0.185 0.008-0.324-0.047-0.316-0.309zM13.028 29.353c-0.347 0-0.671-0.031-0.987 0.007-0.494 0.062-0.756 0.733-0.47 1.142 0.048 0.057 0.111 0.1 0.182 0.123l0.003 0.001c0.416 0.139 0.81 0.015 1.187-0.162 0.039-0.015 0.077-0.085 0.077-0.131 0.015-0.325 0.007-0.64 0.007-0.98zM14.833 28.095v-3.178c0-0.24 0.062-0.301 0.294-0.301h0.632c0.247 0 0.309 0.062 0.309 0.301v6.294c0 0.339-0.039 0.378-0.371 0.378h-0.555c-0.247 0-0.309-0.062-0.309-0.309v-3.185zM26.419 26.699c0.309-0.1 0.61-0.208 0.91-0.309 0.008 0 0.016 0 0.016-0.007 0.47-0.085 0.54-0.031 0.54 0.44 0 0.101-0.008 0.208 0 0.309 0.007 0.177-0.062 0.239-0.239 0.269-0.34 0.062-0.671 0.154-1.003 0.232-0.154 0.038-0.193 0.131-0.193 0.277 0.008 1.111 0 2.221 0 3.332 0 0.293-0.054 0.347-0.355 0.347-0.208 0-0.409 0.008-0.618 0-0.2-0.008-0.262-0.077-0.262-0.269v-4.644c0-0.208 0.054-0.262 0.262-0.262h0.556c0.323 0.008 0.331 0.015 0.385 0.285z"></path>
</symbol>
<symbol id="icon-kitch-o" viewBox="0 0 130 32">
<path d="M129.73 0h-129.73v32h129.73v-32z"></path>
</symbol>
<symbol id="icon-sydney" viewBox="0 0 26 32">
<path fill="#0a8bfe" style="fill: var(--color5, #0a8bfe)" d="M25.303 22.362h-0.429v-1.242l0.853-5.908c0.003-0.018 0.004-0.039 0.004-0.060 0-0.107-0.040-0.204-0.105-0.278l0 0c-0.079-0.090-0.194-0.146-0.322-0.146-0.001 0-0.001 0-0.002 0h-0.858c-0.007-0-0.014-0-0.022-0-1.4 0-2.68 0.516-3.66 1.369l0.007-0.006 1.095-5.953c0.004-0.023 0.007-0.049 0.007-0.076 0-0.104-0.038-0.199-0.1-0.272l0 0.001c-0.079-0.093-0.196-0.152-0.328-0.152-0.001 0-0.001 0-0.002 0h-0.858c-0.005 0-0.011-0-0.017-0-1.431 0-2.767 0.412-3.893 1.125l0.030-0.018c-0.838-1.127-1.907-2.035-3.142-2.665l-0.051-0.024c-1.184-0.607-2.584-0.963-4.067-0.963-0.004 0-0.008 0-0.012 0h-0.857c-0.129 0-0.244 0.056-0.324 0.146l-0 0c-0.065 0.074-0.105 0.172-0.105 0.279 0 0.021 0.002 0.041 0.004 0.061l-0-0.002 0.459 3.176c-1.105-0.7-2.451-1.115-3.893-1.115-0 0-0 0-0 0h-0.858c-0.132 0-0.249 0.059-0.329 0.152l-0.001 0.001c-0.062 0.073-0.099 0.168-0.099 0.272 0 0.027 0.002 0.053 0.007 0.078l-0-0.003 0.591 3.217c-0.561-0.205-1.209-0.324-1.885-0.324h-1.716c-0.139 0-0.263 0.066-0.342 0.168l-0.001 0.001c-0.054 0.070-0.086 0.159-0.086 0.256 0 0.041 0.006 0.081 0.017 0.119l-0.001-0.003 1.559 5.397h-0.289c-0.114 0-0.223 0.045-0.303 0.124s-0.125 0.187-0.125 0.3v2.969h-0.429c-0.114 0-0.223 0.045-0.303 0.124s-0.125 0.187-0.125 0.3v1.696c0 0.113 0.045 0.22 0.125 0.3s0.19 0.124 0.303 0.124h24.874c0.114 0 0.223-0.045 0.303-0.124s0.125-0.187 0.125-0.3v-1.697c0-0.112-0.045-0.22-0.125-0.3-0.078-0.077-0.185-0.124-0.303-0.124-0 0-0.001 0-0.001 0h0zM18.012 22.362v-1.272c0-0.113-0.045-0.22-0.125-0.3-0.078-0.077-0.185-0.124-0.303-0.124-0 0-0.001 0-0.001 0h-1.715c-0.114 0-0.223 0.045-0.303 0.124s-0.125 0.188-0.125 0.3v1.272h-1.715v-1.272c0-0.113-0.045-0.22-0.125-0.3-0.078-0.077-0.185-0.124-0.303-0.124-0 0-0.001 0-0.001 0h-1.715c-0.114 0-0.223 0.045-0.303 0.124s-0.125 0.188-0.125 0.3v1.272h-4.54l-3.306-3.269c-0.077-0.077-0.184-0.124-0.302-0.124-0.001 0-0.001 0-0.002 0h-0.429v-0.848h2.144c0.085 0 0.168-0.025 0.238-0.071l1.179-0.777h2.713l2.882 2.443c0.078 0.066 0.177 0.102 0.279 0.102h10.142l1.866 1.476v1.069h-6.004zM17.155 22.362h-0.858v-0.849h0.858v0.849zM12.866 22.362h-0.858v-0.849h0.858v0.849zM17.584 18.969h-1.715v-2.608l1.715 2.121v0.488zM15.010 18.969h-2.11l2.11-2.608v2.608zM24.445 15.576h0.363l-0.682 4.719-1.558-1.233c-0.073-0.058-0.166-0.093-0.268-0.093 0 0 0 0 0 0h-2.395c0.295-1.006 0.891-1.846 1.682-2.441l0.012-0.009c0.782-0.589 1.771-0.944 2.841-0.944 0.001 0 0.003 0 0.004 0h-0zM20.929 10.486l-1.275 6.935c-0.265 0.43-0.478 0.928-0.613 1.457l-0.008 0.037-0.591-0.731v-2.184c0-0.002 0-0.005 0-0.008 0-1.677-0.47-3.245-1.284-4.579l0.022 0.039c0.964-0.606 2.136-0.966 3.391-0.966 0.005 0 0.011 0 0.016 0h0.343zM9.435 7.941c1.070 0 2.13 0.208 3.119 0.613 1.028 0.427 1.906 1.017 2.645 1.748l-0.001-0.001c0.737 0.728 1.333 1.597 1.746 2.562l0.020 0.052c0.392 0.91 0.62 1.97 0.62 3.083 0 0.001 0 0.001 0 0.002v-0 1.124l-1.809-2.237c-0.079-0.098-0.199-0.159-0.333-0.159-0.001 0-0.001 0-0.002 0h0c-0.135 0-0.255 0.062-0.334 0.159l-0.001 0.001-3.154 3.899-1.496-1.268-1.383-9.577h0.363zM4.718 10.486c1.48 0 2.914 0.505 4.062 1.428l0.688 4.766-0.182-0.155c-0.078-0.066-0.177-0.102-0.279-0.102h-3.002c-0.089 0-0.171 0.027-0.239 0.073l0.002-0.001-0.257 0.169-1.136-6.179h0.344zM2.144 13.879c0.717 0 1.423 0.162 2.068 0.471l0.52 2.827-0.144 0.095h-2.443c-0.054 0-0.108 0.010-0.158 0.030l-0.989-3.423h1.147zM1.715 19.817h1.109l2.573 2.545h-3.682v-2.545zM24.874 24.059h-24.017v-0.849h24.017v0.849z"></path>
</symbol>
<symbol id="icon-brisbane" viewBox="0 0 32 32">
<path fill="#0a8bfe" style="fill: var(--color5, #0a8bfe)" d="M30.266 19.499v-3.079h-9.080v-9.749h-2.522v-2.053h-1.15l-1.009-3.079h-0.363v-1.54h-1.009v1.54h-0.364l-1.009 3.079h-1.15v2.052h-2.522v9.749h-9.079v3.079h-1.009v12.315h31.275v-12.315h-1.009zM18.16 26.683h-5.044v-3.592c0-1.415 1.132-2.565 2.522-2.565s2.522 1.151 2.522 2.565v3.592zM15.637 19.499c-1.947 0-3.531 1.612-3.531 3.592v3.592h-3.027v-6.407l6.558-4.765 6.558 4.765v6.407h-3.027v-3.592c0-1.98-1.584-3.592-3.531-3.592zM13.115 12.315c0-1.415 1.132-2.565 2.522-2.565s2.522 1.151 2.522 2.566c0 1.139-0.753 2.134-1.811 2.452l-0.711-0.517-0.712 0.517c-1.058-0.318-1.811-1.311-1.811-2.452zM23.204 20.526h7.062v6.158h-7.062v-6.158zM29.257 17.447v2.053h-6.396l-1.675-1.217v-0.835h8.070zM15.497 2.566h0.282l0.672 2.053h-1.627l0.672-2.053zM13.62 5.645h4.035v1.026h-4.035v-1.026zM12.611 7.698h7.566v9.852l-2.867-2.083c1.115-0.627 1.856-1.802 1.859-3.15v-0c0-1.981-1.584-3.592-3.531-3.592s-3.531 1.611-3.531 3.592c0.001 1.349 0.743 2.524 1.84 3.141l0.018 0.009-2.867 2.084v-9.853h1.513zM2.018 17.446h8.071v0.835l-1.675 1.218h-6.396v-2.053zM8.071 20.525v6.158h-7.062v-6.158h7.062zM4.035 30.788h-1.008v-1.026h1.009v1.026zM8.070 30.788h-1.009v-1.026h1.009v1.026zM12.106 30.788h-1.009v-1.026h1.009v1.026zM16.141 30.788h-1.009v-1.026h1.009v1.026zM20.177 30.788h-1.008v-1.026h1.009v1.026zM24.212 30.788h-1.008v-1.026h1.009v1.026zM28.248 30.788h-1.009v-1.026h1.009v1.026zM29.257 30.788v-2.053h-3.026v2.053h-1.009v-2.053h-3.027v2.053h-1.008v-2.053h-3.027v2.053h-1.009v-2.053h-3.027v2.053h-1.009v-2.053h-3.027v2.053h-1.009v-2.053h-3.027v2.053h-1.009v-2.053h-3.027v2.053h-1.009v-3.079h29.257v3.079h-1.010z"></path>
</symbol>
<symbol id="icon-goldcoast" viewBox="0 0 21 32">
<path fill="#0a8bfe" style="fill: var(--color5, #0a8bfe)" d="M4.495 0.66c0-0.21-0.17-0.379-0.379-0.379s-0.379 0.17-0.379 0.379v0 0.602h-0.639c-0.21 0-0.379 0.17-0.379 0.379s0.17 0.379 0.379 0.379v0h0.639v0.647l-2.466 6.798 0.048 0.017-0.003 0.005-0.519 0.75-0.001 0.116-0.112 11.686-0.68 0.711v8.944h20.778v-8.952l-0.116-0.112-0.45-0.433v-11.378l-0.036-0.077-0.829-1.759-0.028 0.036-2.386-6.895v-0.104h0.639c0.21 0 0.379-0.17 0.379-0.379s-0.17-0.379-0.379-0.379v0h-0.639v-0.602c0-0.21-0.17-0.379-0.379-0.379s-0.379 0.17-0.379 0.379v0.602h-0.638c-0.21 0-0.379 0.17-0.379 0.379s0.17 0.379 0.379 0.379v0h0.638v0.111l-2.166 7.301-0.048 0.086-0.84 1.504v7.475l-2.521-2.935v-0.789h0.638c0.21 0 0.379-0.17 0.379-0.379s-0.17-0.379-0.379-0.379h-0.638v-0.602c0-0.21-0.17-0.379-0.379-0.379s-0.379 0.17-0.379 0.379v0 0.602h-0.639c-0.21 0-0.379 0.17-0.379 0.379s0.17 0.379 0.379 0.379h0.639v0.794l-2.295 2.766v-1.386h-0.113v-6.463l-0.043-0.082-0.364-0.703 0.045-0.017-2.578-7.016v-0.646h0.638c0.21 0 0.379-0.17 0.379-0.379s-0.17-0.379-0.379-0.379v0h-0.638v-0.602zM16.584 3.428l2.183 6.306-0.554 0.712v1.060h-2.974v-0.688l-0.036-0.077-0.484-1.027 1.865-6.287zM6.22 9.561l-0.788 0.868v1.076h-2.86v-1.289l-0.54-0.625 2.086-5.751 2.102 5.721zM6.789 20.554v6.005h-6.027v-3.505l0.677-0.708 0.001-0.15 0.016-1.643h5.22v0.018l0.015-0.018h0.098zM0.762 30.936v-3.618h6.027v3.618h-0.825v-0.643c0-1.084-0.879-1.963-1.963-1.963s-1.963 0.879-1.963 1.963v0 0.643h-1.277zM5.206 30.936h-2.408v-0.643c0-0.665 0.539-1.204 1.204-1.204s1.204 0.539 1.204 1.204v0.643zM7.548 30.936v-3.618h5.575v3.618h-0.825v-0.054c0-1.042-0.536-1.959-1.347-2.49l-0.011-0.007c-0.158-0.103-0.351-0.164-0.559-0.164-0.196 0-0.38 0.055-0.536 0.15l0.005-0.003c-0.879 0.535-1.461 1.482-1.477 2.566l-0 0.002h-0.825zM9.132 30.936l0-0.002c0.016-0.809 0.452-1.516 1.109-1.916l-0.001 0.001c0.041-0.025 0.090-0.040 0.142-0.040 0.054 0 0.105 0.016 0.147 0.043 0.631 0.408 1.012 1.108 1.012 1.86v0.054h-2.408zM13.882 30.936v-3.618h6.14v3.618h-1.39v-0.643c0-1.084-0.879-1.963-1.963-1.963s-1.963 0.879-1.963 1.963v0.643h-0.825zM17.873 30.293v0.643h-2.408v-0.643c0-0.665 0.539-1.204 1.204-1.204s1.204 0.539 1.204 1.204v0zM13.882 26.56v-6.005h5.575v1.964l0.566 0.546v3.496h-6.141zM7.548 26.56v-6.006h5.575v6.006h-5.575zM6.676 19.521v0.274h-5.213l0.089-9.318 0.108-0.156 0.153 0.177v1.765h4.378v-1.542l0.327-0.36 0.159 0.306v8.852zM13.123 19.796h-5.575v-0.274l2.68-3.23 2.896 3.37v0.134zM19.457 19.796h-5.575v-8.576l0.384-0.688 0.215 0.455v1.277h4.491v-1.558l0.219-0.282 0.266 0.564v8.808zM3.25 14.284v4.145c0 0.21-0.17 0.379-0.379 0.379s-0.379-0.17-0.379-0.379v-4.145c0-0.21 0.17-0.379 0.379-0.379s0.379 0.17 0.379 0.379zM5.286 14.284v4.145c0 0.21-0.17 0.379-0.379 0.379s-0.379-0.17-0.379-0.379v-4.145c0-0.21 0.17-0.379 0.379-0.379s0.379 0.17 0.379 0.379zM15.538 13.904c-0.21 0-0.379 0.17-0.379 0.379v4.145c0 0.21 0.17 0.379 0.379 0.379s0.379-0.17 0.379-0.379v-4.145c0-0.21-0.17-0.379-0.379-0.379zM17.953 14.284v4.145c0 0.21-0.17 0.379-0.379 0.379s-0.379-0.17-0.379-0.379v-4.145c0-0.21 0.17-0.379 0.379-0.379s0.379 0.17 0.379 0.379zM17.026 21.192l-0.259-0.216-0.847 0.8c-0.748 0.709-1.214 1.709-1.214 2.818 0 0 0 0 0 0v0 0.977h4.152v-1.036c0-1.15-0.511-2.241-1.394-2.978l-0.439-0.366zM16.442 22.327l0.357-0.337 0.18 0.15c0.687 0.576 1.121 1.435 1.121 2.395v0 0.277h-2.635v-0.219c0-0.858 0.353-1.678 0.976-2.267zM3.874 20.976l0.697 0.582c0.855 0.716 1.394 1.784 1.394 2.978v0 1.036h-4.152v-0.977c0-1.067 0.439-2.086 1.214-2.818l0.846-0.8zM3.905 21.991l-0.356 0.337c-0.602 0.57-0.977 1.375-0.977 2.267v0 0.219h2.634v-0.277c-0-0.96-0.434-1.819-1.116-2.391l-0.005-0.004-0.18-0.15zM9.799 21.694c0.135-0.032 0.277-0.049 0.424-0.049 0.182 0 0.357 0.026 0.521 0.074l-0.325 0.494c-0.059-0.011-0.127-0.018-0.196-0.018-0.032 0-0.063 0.001-0.094 0.004l0.004-0-0.333-0.505zM11.245 22.959c-0.036-0.13-0.097-0.249-0.177-0.353l0.344-0.522 0.002 0.002c0.257 0.222 0.446 0.521 0.534 0.872h-0.703zM11.948 23.718l-0.002 0.012c-0.080 0.32-0.252 0.604-0.488 0.823l-0.43-0.651c0.050-0.056 0.092-0.117 0.129-0.183h0.791zM10.223 24.263c0.044 0 0.087-0.003 0.13-0.008l0.451 0.684c-0.172 0.059-0.371 0.093-0.578 0.093-0.001 0-0.002 0-0.004 0h0c-0.001 0-0.002 0-0.003 0-0.172 0-0.338-0.023-0.496-0.067l0.013 0.003 0.465-0.705h0.022zM9.486 23.97l-0.426 0.645c-0.272-0.227-0.471-0.535-0.559-0.886l-0.002-0.012h0.792c0.052 0.094 0.118 0.179 0.196 0.252zM9.201 22.959h-0.703c0.096-0.382 0.312-0.704 0.605-0.932l0.004-0.003 0.334 0.508c-0.112 0.119-0.196 0.265-0.241 0.427zM10.223 20.887c-1.383 0-2.528 1.085-2.528 2.452s1.145 2.452 2.528 2.452 2.528-1.085 2.528-2.452c0-1.367-1.145-2.452-2.528-2.452zM10.223 22.954c0.178 0 0.299 0.136 0.299 0.275s-0.121 0.275-0.299 0.275c-0.178 0-0.299-0.136-0.299-0.275s0.121-0.275 0.299-0.275z"></path>
</symbol>
<symbol id="icon-adelaide" viewBox="0 0 31 32">
<path fill="#0a8bfe" style="fill: var(--color5, #0a8bfe)" d="M29.654 28.25h0.617c0.356 0 0.644 0.28 0.644 0.625v2.5c0 0.345-0.288 0.625-0.644 0.625h-29.627c-0.356 0-0.644-0.279-0.644-0.625v-2.5c0-0.345 0.288-0.625 0.644-0.625h0.617v-11.062h-0.617c-0.356 0-0.644-0.279-0.644-0.625s0.288-0.625 0.644-0.625h0.617v-1.814c0-0.322 0.251-0.587 0.574-0.621-0.091-0.858 0.266-1.73 1.012-2.348l1.935-1.603c0.113-0.093 0.259-0.15 0.418-0.15s0.305 0.056 0.419 0.15l-0.001-0.001 1.936 1.603c0.107 0.089 0.206 0.184 0.297 0.283v-0.802c0-0.345 0.288-0.625 0.644-0.625h0.521c0.248-2.426 1.925-4.451 4.2-5.268v-2.181c0-0.345 0.288-0.625 0.644-0.625h0.952v-1.312c0-0.345 0.288-0.625 0.644-0.625s0.644 0.28 0.644 0.625v1.312h0.952c0.356 0 0.644 0.28 0.644 0.625v2.181c2.276 0.817 3.953 2.842 4.201 5.268h0.52c0.356 0 0.644 0.28 0.644 0.625v0.802c0.092-0.099 0.19-0.194 0.298-0.283l1.935-1.603c0.113-0.093 0.259-0.15 0.418-0.15s0.305 0.056 0.419 0.15l-0.001-0.001 1.936 1.603c0.746 0.618 1.103 1.49 1.011 2.348 0.323 0.034 0.574 0.299 0.574 0.621v1.813h0.617c0.356 0 0.644 0.279 0.644 0.625s-0.288 0.625-0.644 0.625h-0.616v11.061zM26.359 28.25h2.007v-11.062h-5.302v0.759c0.304 0.050 0.535 0.306 0.535 0.616 0 0.309-0.232 0.565-0.536 0.615v9.073h2.008v-7.151c0-0.345 0.288-0.625 0.644-0.625s0.644 0.28 0.644 0.625v7.151zM19.634 25.151v3.099h2.142v-9.063h-12.636v9.063h2.142v-3.099h-0.153c-0.355 0-0.644-0.279-0.644-0.625s0.289-0.625 0.644-0.625h0.203c0.311-1.939 2.043-3.428 4.127-3.428s3.816 1.489 4.126 3.428h0.203c0.356 0 0.644 0.28 0.644 0.625s-0.288 0.625-0.644 0.625h-0.153zM12.642 23.901h5.63c-0.294-1.246-1.444-2.178-2.815-2.178s-2.521 0.932-2.815 2.178zM21.775 14.065v-2.804h-5.677l5.677 2.804zM13.387 15.709h-4.247v2.228h12.635v-2.228h-4.247c-0.275 0.856-1.099 1.478-2.071 1.478s-1.796-0.623-2.070-1.478zM14.577 15.084c0 0.471 0.395 0.854 0.88 0.854s0.88-0.383 0.88-0.854c0-0.471-0.395-0.853-0.88-0.853s-0.88 0.383-0.88 0.853zM17.528 14.459h2.205l-4.276-2.111-4.276 2.112h2.206c0.275-0.856 1.099-1.479 2.070-1.479s1.796 0.623 2.071 1.478zM23.063 15.699v0.239h5.303v-1.188h-4.867c0.063 0.094 0.1 0.21 0.1 0.335v0c0 0.309-0.232 0.565-0.536 0.615zM25.715 10.85l-1.517 1.256c-0.455 0.377-0.651 0.896-0.547 1.393h4.129c0.103-0.497-0.092-1.017-0.548-1.393l-1.517-1.256zM16.41 3.187h-1.905v1.237c0.286-0.043 0.616-0.068 0.952-0.068s0.666 0.025 0.989 0.073l-0.037-0.004v-1.237zM20.601 10.012c-0.318-2.48-2.502-4.406-5.143-4.406s-4.825 1.926-5.144 4.407c0.199 0.002 0.377 0.093 0.493 0.233h3.859c0.12-0.143 0.299-0.234 0.5-0.234 0.001 0 0.002 0 0.003 0h5.432zM14.673 11.034h-3.871c-0.118 0.139-0.296 0.227-0.497 0.227h-1.165v2.804l5.643-2.929c-0.040-0.030-0.078-0.064-0.11-0.102zM5.201 10.85l-1.517 1.256c-0.455 0.377-0.651 0.896-0.547 1.393h4.129c0.103-0.497-0.092-1.017-0.547-1.393l-1.518-1.256zM7.417 14.75h-4.868v1.188h5.303v-0.239c-0.304-0.050-0.535-0.306-0.535-0.615 0-0.125 0.038-0.24 0.102-0.337l-0.001 0.002zM7.852 17.188h-5.302v11.061h2.007v-7.151c0-0.345 0.288-0.625 0.644-0.625s0.644 0.28 0.644 0.625v7.151h2.007v-9.073c-0.304-0.050-0.535-0.306-0.535-0.615s0.231-0.565 0.535-0.616v-0.758zM1.288 30.75h28.339v-1.25h-11.594c-0.355 0-0.644-0.28-0.644-0.625s0.289-0.625 0.644-0.625h0.312v-3.099h-5.776v3.099h0.312c0.356 0 0.644 0.28 0.644 0.625s-0.288 0.625-0.644 0.625h-11.593v1.25z"></path>
</symbol>
<symbol id="icon-melbourne" viewBox="0 0 30 32">
<path fill="#0a8bfe" style="fill: var(--color5, #0a8bfe)" d="M25.083 0.315l0.557 5.394 0.117-0.407 0.443 0.294-0.215 0.325 0.216-0.325v0h0l0.001 0.001 0.006 0.004 0.021 0.014 0.165 0.105c0.117 0.079 0.234 0.159 0.194 0.137l0.107 0.069c0.25 0.171 0.497 0.346 0.652 0.462 0.254 0.185 0.53 0.44 0.735 0.64l0.002 0.002c0.11 0.108 0.218 0.217 0.329 0.334l0.020 0.021 0.006 0.006 0.001 0.002 0.001 0v0l0.105 0.112v2.916l0.191 0.144 0.155 0.117v3.566l0.191 0.144 0.155 0.117v17.284l-18.894 0.001v-22.961h2.945v-4.231l1.44-1.179 0.244 0.18-0.232 0.314c0.232-0.314 0.232-0.313 0.232-0.313l0.001 0.001 0.004 0.004 0.016 0.012 0.064 0.047c0.335 0.255 0.664 0.517 0.946 0.754 0.555 0.464 1.235 1.076 1.642 1.607 0.455 0.595 0.796 1.379 1.020 1.993l-0.029-0.090c0.124 0.333 0.234 0.672 0.353 1.108 0.007 0.028 0.014 0.050 0.017 0.065l0.005 0.018 0.001 0.005 0.001 0.001v0.001l0.011 0.046v20.533h0.887v-15.245l0.346-0.174v-3.487l0.346-0.348v-0.55h-0.051v-0.78h0.051v-1.548l0.124-0.116h0l0-0.001 0.002-0.001 0.007-0.006 0.025-0.023-0.014 0.012c0.131-0.12 0.264-0.238 0.421-0.374 0.252-0.217 0.583-0.49 0.875-0.688l0.291-0.188c0.335-0.23 0.668-0.462 0.733-0.517l0.078-0.054 0.443-0.31 0.175 0.475 0.064 0.174 0.471-5.638 0.777-0.008zM21.39 9.907v0.746h6.377v-0.746h-6.377zM27.767 9.127v-1.309c-0.059-0.060-0.138-0.14-0.229-0.23-0.199-0.194-0.443-0.417-0.65-0.568-0.135-0.101-0.356-0.257-0.579-0.411l-0.099-0.064-0.378 1.311-0.763-0.068-0.335-3.241-0.27 3.233-0.755 0.102-0.498-1.352c-0.215 0.149-0.484 0.334-0.724 0.497-0.253 0.172-0.557 0.421-0.804 0.633-0.118 0.102-0.22 0.193-0.295 0.26v1.207h6.377zM21.045 11.433v1.003h7.069v-1.003h-7.070zM21.044 13.217v0.873h7.070v-0.873h-7.069zM20.852 14.87l-0.153 0.077v0.924h7.762v-0.971l-0.041-0.031h-7.568zM20.698 16.652v1.002h7.762v-1.002h-7.762zM20.698 18.434v1.002h7.762v-1.002h-7.762zM20.698 20.215v1.002h7.762v-1.002h-7.762zM20.698 21.998v0.999h7.762v-0.999h-7.762zM20.698 23.777v1.003h7.762v-1.003h-7.762zM20.698 25.561v1.002h7.762v-1.002h-7.762zM20.698 27.343v3.673h2.235v-2.8h3.041v2.8h2.486v-3.673h-7.762zM23.713 28.996v2.020h1.481v-2.020h-1.481zM12.726 29.743h4.132v1.273h2.809v-0.525h-1.417v-21.216l-0.008-0.030c-0.111-0.409-0.214-0.726-0.33-1.037l0.027 0.084c-0.216-0.592-0.524-1.286-0.907-1.786-0.35-0.457-0.97-1.020-1.523-1.483-0.187-0.158-0.416-0.344-0.649-0.525l-0.055-0.042-0.051-0.039-0.682 0.558v5.162h-1.488v-0.522h-1.457v21.401h1.6v-1.274zM13.507 30.522v0.493h2.571v-0.493h-2.571zM2.563 7.599h5.637l1.193 0.79v23.405h-9.059v-2.956h0.96l0.076 0.521c-0.194-1.111-0.368-2.228-0.569-3.801-0.277-2.121-0.54-4.781-0.467-6.876 0.115-3.293 0.579-5.995 1.015-7.876l0.040-0.204c0.174-0.74 0.376-1.47 0.546-1.975l0.036-0.129c0.078-0.243 0.161-0.484 0.208-0.596l0.015-0.039 0.004-0.011 0.001-0.003 0-0.001 0.364 0.14-0.364-0.14 0.096-0.25h0.267zM8.612 28.215v-0.745h-5.025v-2.053h5.025v-0.748h-5.024v-2.053h5.025v-0.746h-5.025v-2.053h5.025v-0.746h-5.025v-2.053h5.025v-0.748h-5.025v-2.053h5.025v-0.747h-5.025v-2.053h5.025v-2.609l-0.647-0.429h-5.127c-0.041 0.119-0.095 0.281-0.158 0.481-0.165 0.492-0.362 1.203-0.532 1.924l-0.039 0.198c-0.427 1.84-0.883 4.491-0.996 7.727-0.071 2.028 0.184 4.634 0.46 6.748 0.208 1.617 0.39 2.783 0.595 3.94l-0.076-0.52 0.037 0.209 0.010 0.053 0.002 0.014 0 0.004v0.001h0l0.085 0.461h-1.113v1.396h7.499v-0.745h-5.024v-2.053h5.025zM8.612 28.996h-4.245v0.493h4.245v-0.493zM8.612 26.691v-0.493h-4.245v0.493h4.245zM8.612 23.396h-4.245v0.493h4.245v-0.493zM8.612 21.090v-0.493h-4.245v0.493h4.245zM8.612 18.291v-0.493h-4.245v0.493h4.245zM8.612 14.997h-4.245v0.493h4.245v-0.492zM8.612 12.69v-0.493h-4.245v0.493h4.245zM13.117 14.471h-0.39v2.053h4.132v-2.053h-3.742zM13.507 15.744v-0.493h2.571v0.493h-2.571zM12.727 11.417h4.132v2.053h-4.132v-2.053zM13.507 12.197v0.493h2.571v-0.493h-2.571zM13.117 17.526h-0.39v2.053h4.132v-2.053h-3.742zM13.507 18.799v-0.493h2.571v0.493h-2.571zM12.727 20.581h4.132v2.053h-4.132v-2.053zM13.507 21.361v0.493h2.571v-0.493h-2.571zM12.727 23.634h4.132v2.053h-4.132v-2.053zM13.507 24.414v0.493h2.571v-0.493h-2.571zM13.117 26.688h-0.39v2.053h4.132v-2.053h-3.742zM13.507 27.961v-0.493h2.571v0.493h-2.571z"></path>
</symbol>
<symbol id="icon-canberra" viewBox="0 0 43 32">
<path fill="#0a8bfe" style="fill: var(--color5, #0a8bfe)" d="M42.526 18.673h-9.569l-8.429-6.209v-11.641c0-0.001 0-0.003 0-0.004 0-0.451-0.365-0.817-0.816-0.819h-0c-0.451 0.002-0.816 0.368-0.816 0.819 0 0.001 0 0.003 0 0.004v-0 1.646h-2.449v-1.646c0-0.001 0-0.003 0-0.004 0-0.451-0.365-0.817-0.816-0.819h-0c-0.451 0.002-0.816 0.368-0.816 0.819 0 0.001 0 0.003 0 0.004v-0 6.347c0 0.032 0.015 0.060 0.019 0.092-0.004 0.032-0.019 0.060-0.019 0.092v5.11l-8.428 6.208h-9.57c-0.451 0.002-0.816 0.368-0.816 0.819 0 0.001 0 0.003 0 0.004v-0 11.524c0 0.455 0.365 0.823 0.816 0.823h41.709c0.451-0.002 0.816-0.368 0.816-0.819 0-0.001 0-0.003 0-0.004v0-11.524c0-0.001 0-0.003 0-0.004 0-0.451-0.365-0.817-0.816-0.819h-0zM20.403 18.673h-1.18l1.205-5.587c0.004-0.019-0.002-0.036 0.001-0.055 0.009-0.049 0.017-0.098 0.017-0.149v-4.705h2.449v4.705c0 0.070 0.011 0.14 0.028 0.207 0.004 0.017-0.001 0.033 0.004 0.050l1.585 5.534h-1.574c-0.451 0.002-0.816 0.368-0.816 0.819 0 0.001 0 0.003 0 0.004v-0 2.47h-0.902v-2.47c0-0.001 0-0.003 0-0.004 0-0.452-0.365-0.818-0.816-0.819h-0zM13.153 18.673l5.229-3.852-0.83 3.852h-4.399zM26.212 18.673l-1.064-3.712 5.040 3.712h-3.977zM22.895 4.115v2.415h-2.449v-2.415h2.449zM1.632 20.319h8.203v9.878h-0.816v-4.115c0-0.001 0-0.003 0-0.004 0-0.452-0.365-0.818-0.816-0.819h-0c-0.451 0.002-0.816 0.368-0.816 0.819 0 0.001 0 0.003 0 0.004v-0 4.115h-0.816v-4.115c0-0.001 0-0.002 0-0.004 0-0.451-0.365-0.818-0.816-0.819h-0c-0.451 0.002-0.816 0.368-0.816 0.819 0 0.001 0 0.003 0 0.004v-0 4.115h-0.816v-4.115c0-0.001 0-0.003 0-0.004 0-0.451-0.365-0.817-0.816-0.819h-0c-0.451 0.002-0.816 0.368-0.816 0.819 0 0.001 0 0.003 0 0.004v-0 4.115h-0.857v-9.877zM11.468 20.319h8.119v2.47c0 0.455 0.365 0.823 0.816 0.823h2.535c0.451-0.002 0.816-0.368 0.816-0.819 0-0.001 0-0.003 0-0.004v0-2.47h8.119v9.878h-0.816v-8.232c0-0.001 0-0.002 0-0.004 0-0.451-0.365-0.818-0.816-0.819h-0c-0.451 0.002-0.816 0.368-0.816 0.819 0 0.001 0 0.003 0 0.004v-0 8.232h-0.816v-8.232c0-0.001 0-0.002 0-0.004 0-0.451-0.365-0.818-0.816-0.819h-0c-0.451 0.002-0.816 0.368-0.816 0.819 0 0.001 0 0.003 0 0.004v-0 8.232h-0.816v-8.232c0-0.001 0-0.002 0-0.004 0-0.451-0.365-0.818-0.816-0.819h-0c-0.451 0.002-0.816 0.368-0.816 0.819 0 0.001 0 0.003 0 0.004v-0 8.232h-0.816v-4.115c0-0.001 0-0.003 0-0.004 0-0.451-0.365-0.818-0.816-0.819h-0c-0.451 0.002-0.817 0.368-0.817 0.819 0 0.001 0 0.003 0 0.004v-0 4.115h-0.816v-4.115c0-0.001 0-0.002 0-0.004 0-0.452-0.365-0.818-0.816-0.819h-0c-0.451 0.002-0.816 0.368-0.816 0.819 0 0.001 0 0.003 0 0.004v-0 4.115h-0.816v-8.231c0-0.001 0-0.003 0-0.004 0-0.451-0.365-0.818-0.816-0.819h-0c-0.451 0.002-0.816 0.368-0.816 0.819 0 0.001 0 0.003 0 0.004v-0 8.232h-0.816v-8.232c0-0.001 0-0.002 0-0.004 0-0.451-0.365-0.818-0.816-0.819h-0c-0.451 0.002-0.816 0.368-0.816 0.819 0 0.001 0 0.003 0 0.004v-0 8.232h-0.816v-8.232c0-0.001 0-0.002 0-0.004 0-0.451-0.365-0.818-0.816-0.819h-0c-0.451 0.002-0.816 0.368-0.816 0.819 0 0.001 0 0.003 0 0.004v-0 8.232h-0.816v-9.878zM41.709 30.197h-0.857v-4.115c0-0.001 0-0.003 0-0.004 0-0.451-0.365-0.817-0.816-0.819h-0c-0.451 0.002-0.816 0.368-0.816 0.819 0 0.001 0 0.003 0 0.004v-0 4.115h-0.816v-4.115c0-0.001 0-0.002 0-0.004 0-0.451-0.365-0.818-0.816-0.819h-0c-0.451 0.002-0.816 0.368-0.816 0.819 0 0.001 0 0.003 0 0.004v-0 4.115h-0.816v-4.115c0-0.001 0-0.002 0-0.004 0-0.451-0.365-0.818-0.816-0.819h-0c-0.451 0.002-0.816 0.368-0.816 0.819 0 0.001 0 0.003 0 0.004v-0 4.115h-0.816v-9.877h8.203v9.878z"></path>
</symbol>
</defs>
</svg>
